<svg xmlns="http://www.w3.org/2000/svg" viewBox="0 0 100 100" width="100" height="100">
  <defs>
    <linearGradient id="finquery-gradient" x1="0%" y1="0%" x2="100%" y2="100%">
      <stop offset="0%" stop-color="#059669" />
      <stop offset="100%" stop-color="#10b981" />
    </linearGradient>
  </defs>
  <circle cx="50" cy="50" r="48" fill="url(#finquery-gradient)" stroke="#60a5fa" stroke-width="2" />
  <path d="M25,65 L75,65" stroke="white" stroke-width="2" />
  <path d="M25,30 L25,65" stroke="white" stroke-width="2" />
  <path d="M25,65 L35,55 L45,58 L55,40 L65,45 L75,30" stroke="white" stroke-width="3" fill="none" />
  <circle cx="35" cy="55" r="3" fill="white" />
  <circle cx="45" cy="58" r="3" fill="white" />
  <circle cx="55" cy="40" r="3" fill="white" />
  <circle cx="65" cy="45" r="3" fill="white" />
  <circle cx="75" cy="30" r="3" fill="white" />
  <path d="M30,35 L40,35 L40,45 L30,45 Z" fill="white" opacity="0.5" />
  <path d="M45,50 L55,50 L55,60 L45,60 Z" fill="white" opacity="0.5" />
  <path d="M60,35 L70,35 L70,45 L60,45 Z" fill="white" opacity="0.5" />
</svg> 